<svg width="154" height="783" viewBox="0 0 154 783" fill="none" xmlns="http://www.w3.org/2000/svg">
<path d="M10.2557 1C21.3197 1 31.0381 5.33144 41.2705 9.25022C59.7937 16.3442 79.2303 24.0336 96.5775 33.6953C113.6 43.1761 124.232 60.1994 118.043 80.141C114.424 91.8041 98.4836 102.598 88.0217 107.947C72.3084 115.983 56.8612 123.989 43.5622 135.754C33.4488 144.7 4.81835 170.333 23.5478 184.567C34.4424 192.847 50.373 197.31 62.8127 202.825C77.101 209.159 89.1733 216.459 102.001 225.36C108.605 229.942 121.899 236.273 121.634 246.368C121.454 253.183 116.344 259.631 113.46 265.542C110.75 271.096 109.075 278.157 105.592 283.188C98.4744 293.469 88.3935 304.373 78.3201 311.835C63.3856 322.897 50.0749 335.487 37.1454 348.808C26.8064 359.46 13.5955 366.63 24.6172 381.121C42.5285 404.671 62.3221 423.507 90.7718 433.831C106.103 439.395 120.317 444.375 134.773 452.012C143.493 456.619 156.948 460.821 152.419 473.402C147.246 487.772 132.954 493.767 121.939 502.889C109.295 513.36 92.9748 517.434 79.3132 526.264C64.4698 535.858 50.5548 546.426 37.069 557.814C29.6508 564.078 22.7017 570.705 15.4503 577.141C12.9916 579.323 0.552358 586.446 1.01244 590.356C1.70631 596.254 13.0516 600.862 17.2837 603.343C29.026 610.226 40.7596 614.244 53.9514 617.322C67.8051 620.555 82.3381 623.209 95.5081 628.781C102.212 631.617 111.362 634.56 116.134 640.392C119.816 644.893 121.192 652.812 123.696 658.115C125.969 662.928 130.188 666.009 132.634 670.643C135.412 675.907 140.001 680.206 137.218 686.532C129.674 703.677 101.7 713.138 86.7995 721.443C68.0009 731.921 49.2692 741.031 31.1869 752.84C24.5959 757.144 17.3004 762.144 12.3947 768.424C8.65408 773.212 6.69061 778.117 2.00552 782.021" stroke="#882B11" stroke-linecap="round"/>
</svg>
