<svg width="1568" height="4383" viewBox="0 0 1568 4383" fill="none" xmlns="http://www.w3.org/2000/svg">
<path d="M101.045 2.45288C232.107 41.7717 368.709 55.9858 504.236 68.1833C593.046 76.1762 680.455 75.5835 767.158 95.2886C955.913 138.188 1152.26 145.07 1342.47 179.654C1377.07 185.945 1402.39 212.651 1433.95 221.667C1452.3 226.91 1461.05 280.752 1461.05 299.934C1461.05 352.391 1392.94 406.62 1357.38 436.816C1309.9 477.124 1273.36 520.16 1216.43 548.625C1128.27 592.703 1045.94 650.267 954.862 688.218C851.112 731.447 756.851 790.215 656.026 837.974C580.75 873.632 502.161 908.445 422.92 934.198C358.358 955.181 290.351 963.539 225.729 981.633C166.711 998.158 115.82 1016.78 64.4524 1043.97C47.9767 1052.7 92.5619 1117.59 107.143 1130.71C144.91 1164.7 216.261 1187.7 262.66 1206.61C305.31 1223.98 347.112 1237.79 390.733 1252.69C451.038 1273.28 517.172 1268.2 579.453 1280.13C713.718 1305.84 849.137 1325.87 986.033 1325.87C1052.89 1325.87 1119.75 1325.87 1186.61 1325.87C1218.36 1325.87 1252.76 1329.26 1284.19 1324.52C1313.78 1320.05 1347.14 1324.65 1375.67 1316.72C1404.76 1308.64 1439.93 1313.67 1470.2 1313.67C1502.73 1313.67 1492.7 1363.89 1491.55 1386.86C1489.25 1432.86 1426.35 1485.86 1391.26 1508.83C1349.64 1536.07 1308.22 1565.43 1263.19 1586.76C1206.72 1613.51 1144.61 1628.59 1085.98 1649.44C897.789 1716.35 705.306 1747.56 511.013 1789.37C412.588 1810.55 322.015 1841.32 231.828 1885.6C204.391 1899.06 179.968 1915.93 152.545 1929.64C138.024 1936.9 116.208 1943.33 104.433 1954.04C83.0829 1973.44 -32.6755 2015.95 33.9589 2052.97C73.9793 2075.2 109.354 2094 155.933 2101.76C279.288 2122.32 406.611 2123.09 531.003 2136.66C750.229 2160.57 967.867 2195.14 1186.61 2225.77C1259.7 2236 1333.08 2249.43 1405.83 2262.02C1432.48 2266.63 1470.35 2263.6 1494.26 2277.27C1512.54 2287.71 1503.75 2339.43 1503.75 2356.55C1503.75 2400.35 1476.5 2427.85 1441.4 2449.39C1383.95 2484.64 1320.78 2515.12 1260.47 2545.27C1185.49 2582.77 1102.6 2602.86 1028.05 2640.14C999.126 2654.6 968.657 2664.24 939.277 2677.41C875.966 2705.79 816.209 2745.4 753.605 2776C706.155 2799.2 658.139 2821.33 610.625 2844.45C571.395 2863.53 528.166 2872.69 490.006 2893.24C435.768 2922.44 377.418 2940.62 319.92 2961.68C293.768 2971.25 254.46 2975.73 231.828 2990.81C187.901 3020.1 125.136 3029.61 79.6991 3054.85C70.4721 3059.98 -10.3346 3097.57 3.46543 3105.33C26.657 3118.38 41.9369 3134.9 69.1958 3144.64C160.611 3177.29 250.353 3195.2 348.042 3198.51C472.138 3202.72 595.781 3204.27 720.062 3204.27C806.577 3204.27 892.892 3193.25 979.257 3192.07C1085.33 3190.62 1189.94 3200.38 1295.03 3204.27C1328.09 3205.49 1355.24 3216.79 1385.16 3222.23C1437.35 3231.72 1496.66 3253.35 1529.5 3294.39C1547.09 3316.39 1551.5 3336.12 1563.38 3362.84C1584.2 3409.69 1477.62 3449.51 1451.91 3460.41C1370.75 3494.84 1282.32 3530.12 1196.1 3548.17C1073.89 3573.75 948.397 3576.38 826.79 3606.78C732.003 3630.48 626.886 3645.36 542.861 3698.26C469.409 3744.51 393.277 3793.07 317.548 3835.15C267.648 3862.87 241.026 3917.51 214.209 3966.27C187.345 4015.11 201.587 4077.93 198.624 4131.27C197.709 4147.74 167.266 4175.04 157.288 4187.51C141.095 4207.76 131.68 4239.08 116.63 4262.73C101.563 4286.41 87.4851 4317.82 61.7419 4332.53C49.7586 4339.38 27.6457 4369.55 21.7615 4381.32" stroke="#882B11" stroke-width="3" stroke-linecap="round"/>
</svg>
