<svg width="193" height="810" viewBox="0 0 193 810" fill="none" xmlns="http://www.w3.org/2000/svg">
<path d="M8.49243 1.43884C24.9308 1.43884 39.4177 8.25235 55.4149 9.11706C66.0576 9.69234 74.0012 14.2094 82.5446 19.5253C94.2077 26.7824 107.458 33.1067 119.827 39.0621C131.345 44.6081 155.914 48.7228 155.914 64.3149C155.914 75.1131 151.712 85.7333 142.435 92.0419C125.877 103.301 110.566 115.891 96.3654 130.092C81.729 144.728 69.868 162.053 54.4764 175.905C42.529 186.658 32.1449 200.177 21.716 212.419C16.2295 218.86 9.9754 224.628 11.649 233.833C12.2977 237.401 18.3154 236.281 20.7776 237.16C29.9289 240.429 39.7147 239.464 49.2723 239.464C64.0666 239.464 78.1331 241.862 92.6116 242.535C110.983 243.389 128.049 253.034 145.847 256.27C151.61 257.318 155.634 260.401 158.218 265.57C161.215 271.564 169.713 279.105 168.114 286.301C166.579 293.207 155.102 299.466 149.942 303.193C143.492 307.851 138.079 313.897 131.685 318.464C123.073 324.616 114.874 335.883 103.702 337.745C99.1892 338.497 92.7225 344.708 88.3459 346.959C79.6426 351.435 70.7397 355.375 62.1547 360.097C49.9709 366.798 41.3916 375.325 30.674 383.9C25.0086 388.432 17.2193 394.283 13.4406 400.706C11.8166 403.467 10.0281 408.101 10.0281 411.456C10.0281 414.663 20.3336 414.658 22.3985 415.38C57.1952 427.559 96.5347 414.986 131.685 427.154C139.553 429.877 152.131 437.816 156.256 445.24C162.941 457.274 158.139 465.749 152.928 478.342C149.988 485.446 150.98 492.501 143.544 496.684C134.286 501.892 125.003 509.767 116.926 516.647C97.7242 533.005 79.1181 549.845 59.1687 565.362C49.4275 572.938 41.3046 580.476 32.7215 589.249C27.7108 594.371 18.448 598.48 15.8294 605.288C13.6737 610.893 3.23973 625.7 15.3175 627.896C20.8193 628.897 25.2689 631.469 30.674 633.271C38.5317 635.89 48.502 636.308 56.7799 637.963C79.5641 642.52 103.622 644.136 125.884 651.016C146.171 657.287 170.891 658.293 189.698 668.25C198.14 672.719 180.178 696.024 175.025 699.304C161.275 708.054 143.761 711.76 130.576 720.888C116.473 730.652 99.7817 737.659 84.9334 746.568C67.9576 756.753 52.6409 766.815 37.755 779.84C31.6655 785.168 24.8625 789.884 18.4741 794.77C12.857 799.065 7.59808 806.926 0.814209 809.188" stroke="#882B11" stroke-linecap="round"/>
</svg>
