<svg width="1018" height="4028" viewBox="0 0 1018 4028" fill="none" xmlns="http://www.w3.org/2000/svg">
<path d="M90.5214 1.55225C202.929 32.7766 301.125 97.8036 415.371 126.365C466.422 139.128 512.403 163.662 562.457 178.896C588.125 186.708 601.241 198.667 625.074 209.153C687.073 236.433 751.561 260.451 815.024 283.117C842.001 292.751 856.874 334.545 871.337 355.399C892.946 386.555 910.258 415.829 905.797 455.417C892.94 569.528 798.22 646.415 710.383 708.825C607.243 782.109 487.355 829.173 375.868 887.85C329.188 912.418 203.988 963.186 203.988 1026.53C203.988 1072.86 261.663 1117.96 299.383 1144.2C467.938 1261.46 679.336 1246.66 869.656 1296.75C906.603 1306.47 969.547 1324.7 982.282 1366.09C997.925 1416.93 997.458 1474.02 967.994 1518.22C912.816 1600.99 846.477 1680.48 756.19 1726.24C642.006 1784.11 526.344 1841.15 404.024 1879.21C363.35 1891.86 10.4093 1963.79 78.7545 2068.32C94.3663 2092.2 118.441 2101.07 143.472 2112.02C193.1 2133.74 238.279 2162.31 291.399 2175.9C425.766 2210.28 564.235 2220.22 700.297 2243.98C762.306 2254.81 829.49 2276.79 892.35 2278.44C911.132 2278.94 921.85 2278.34 937.736 2287.69C981.182 2313.24 976.688 2383.71 951.184 2420.48C923.186 2460.85 879.357 2486.72 839.399 2513.36C790.017 2546.28 746.73 2588.14 695.255 2618.42C586.681 2682.29 470.218 2733.96 363.261 2800.81C269.061 2859.68 171.57 2914.05 71.6103 2962.18C50.4864 2972.35 26.4971 2982.44 11.095 3001.26C-15.6269 3033.92 21.3567 3033.71 45.9754 3043.29C139.199 3079.54 227.384 3125.44 319.135 3163.48C465.598 3224.21 643.069 3204.83 798.215 3222.31C865.28 3229.87 928.403 3213.34 989.847 3250.89C1044.26 3284.15 1000.78 3382.28 975.138 3416.89C919.498 3492 829.241 3542.22 748.626 3585.41C697.081 3613.02 650.047 3647.83 599.018 3676.18C538.242 3709.94 476.016 3737.89 417.472 3776.2C326.338 3835.83 219.315 3872.42 130.024 3933.37C93.9968 3957.96 35.1489 3985.28 14.8772 4025.82" stroke="#882B11" stroke-width="3" stroke-linecap="round"/>
</svg>
