<svg width="617" height="179" viewBox="0 0 617 179" fill="none" xmlns="http://www.w3.org/2000/svg">
<ellipse cx="308.5" cy="89.2857" rx="308.5" ry="89.2857" fill="#882B11"/>
<path d="M599.33 89.2856C599.33 98.9518 591.931 108.672 577.254 117.898C562.678 127.06 541.453 135.386 515.048 142.406C462.268 156.439 389.241 165.143 308.5 165.143C227.759 165.143 154.732 156.439 101.952 142.406C75.5467 135.386 54.3221 127.06 39.7463 117.898C25.0689 108.672 17.6698 98.9518 17.6698 89.2856C17.6698 79.6194 25.0689 69.8996 39.7463 60.6733C54.3221 51.5108 75.5467 43.1857 101.952 36.1651C154.732 22.1319 227.759 13.4285 308.5 13.4285C389.241 13.4285 462.268 22.1319 515.048 36.1651C541.453 43.1857 562.678 51.5108 577.254 60.6733C591.931 69.8996 599.33 79.6194 599.33 89.2856Z" stroke="#D1CAA7" stroke-width="4"/>
</svg>
