<svg width="171" height="156" viewBox="0 0 171 156" fill="none" xmlns="http://www.w3.org/2000/svg">
<path d="M149.728 74.4586C150.287 73.8938 150.887 73.3697 151.521 72.8903C153.012 71.9062 154.811 71.502 156.58 71.7538C158.348 72.0056 159.963 72.8961 161.12 74.2572C162.077 75.622 162.645 77.2208 162.765 78.8832C163.568 84.9958 159.294 89.9676 154.176 92.3076C153.428 92.6495 152.638 92.9017 151.86 93.1719C151.421 93.3239 151.18 93.504 151.255 94.059C151.599 97.1157 151.564 100.203 151.152 103.251C150.215 111.265 148.139 119.104 144.989 126.532C142.639 132.42 139.446 137.935 135.509 142.904C132.012 147.473 127.466 151.131 122.256 153.57C117.502 155.693 112.234 156.385 107.093 155.561C103.284 154.877 99.7396 153.15 96.8526 150.573C95.6479 149.567 94.5329 148.452 93.4201 147.425C91.9796 148.556 90.5965 149.803 89.0615 150.819C83.6676 154.392 77.793 156.476 71.2341 155.906C67.251 155.509 63.4228 154.155 60.0749 151.961C53.6945 147.93 50.2233 141.914 48.5296 134.716C47.2902 128.747 46.9826 122.622 47.6178 116.559C48.1795 109.535 49.2909 102.565 50.9417 95.7146C52.8284 87.7415 54.9418 79.8213 57.0129 71.8928C58.3869 66.6323 59.8601 61.3977 61.2844 56.1502C61.3345 55.9035 61.3714 55.6542 61.3949 55.4035C60.2315 55.3095 59.1155 55.1821 57.9961 55.1353C53.959 54.9347 49.9122 55.0786 45.8995 55.5655C39.6048 56.3779 33.5319 57.881 28.0262 61.2058C24.3188 63.6031 21.1924 66.7966 18.8742 70.5539C15.6348 75.3966 14.6856 80.8138 14.9333 86.525C15.3526 96.1947 22.0042 102.859 30.4994 105.074C31.2921 105.28 32.1182 105.36 33.0562 105.52C32.9098 105.709 32.7508 105.889 32.5802 106.057C28.1126 109.772 23.6418 113.484 19.1678 117.192C17.9956 118.161 16.7685 119.065 15.6083 120.049C15.3307 120.298 14.9905 120.467 14.6241 120.538C14.2577 120.609 13.8789 120.579 13.5282 120.452C7.12516 118.579 3.15577 114.31 1.19093 108.02C-0.492089 102.631 -0.179215 97.2156 0.823809 91.7682C2.32924 83.4436 5.52792 75.5167 10.2217 68.4786C14.0073 62.9097 18.5047 57.8597 23.5996 53.4568C29.8748 47.97 36.8404 43.3271 44.3193 39.6461C50.461 36.5148 57.0302 34.3044 63.8155 33.086C69.3127 32.1364 74.8593 31.4703 80.3873 30.702C86.3836 29.8689 92.3876 29.0897 98.3812 28.2385C104.737 27.373 111.035 26.1216 117.239 24.491C123.424 22.9849 129.329 20.4991 134.729 17.1279C138.027 14.9788 140.955 12.3079 143.396 9.21958C143.634 8.91836 143.9 8.63907 144.334 8.14258C144.334 9.31975 144.326 10.2643 144.336 11.2083C144.479 16.7716 143.969 22.3325 142.818 27.7772C141.084 35.4239 137.747 42.1872 131.801 47.4705C127.876 50.8648 123.253 53.3567 118.26 54.7705C114.584 55.9052 110.787 56.601 106.947 56.8436C103.417 57.0501 99.8701 57.0135 96.3306 57.01C94.5913 57.0083 92.8528 56.8066 91.1125 56.7762C90.9248 56.8014 90.7453 56.8697 90.5883 56.9756C90.4312 57.0816 90.3008 57.2224 90.2071 57.3871C87.6737 62.8246 85.1647 68.2733 82.6799 73.7332C79.1138 81.5587 75.8308 89.4981 73.0391 97.6382C71.1033 103.138 69.5879 108.776 68.506 114.505C67.3302 119.925 67.1139 125.51 67.8669 131.005C68.4242 135.331 70.5558 139.3 73.8544 142.153C74.8336 143.04 75.9826 143.718 77.2317 144.147C78.4809 144.577 79.8041 144.748 81.1214 144.651C82.4386 144.553 83.7224 144.19 84.895 143.582C86.0676 142.974 87.1045 142.134 87.9429 141.113C88.1288 140.936 88.2384 140.694 88.2485 140.438C88.2587 140.181 88.1685 139.931 87.9972 139.74C85.6753 135.778 83.9468 131.497 82.8666 127.033C81.2517 120.291 80.8968 113.526 82.9444 106.798C84.2363 101.969 87.1216 97.7181 91.1324 94.7343C94.3855 92.2498 98.452 91.0753 102.529 91.4427C109.149 92.1409 113.921 95.3536 115.967 102.38C117.423 107.754 117.118 113.454 115.095 118.641C112.54 125.967 108.199 132.202 103.158 138C102.759 138.46 102.372 138.935 101.932 139.352C101.564 139.7 101.584 139.937 101.911 140.312C103.212 141.687 104.935 142.588 106.806 142.872C110.633 143.704 114.032 142.496 117.261 140.657C121.94 137.993 125.091 133.901 127.587 129.246C129.53 125.643 130.942 121.778 131.78 117.771C133.629 109.635 133.236 101.15 130.644 93.2201C129.737 90.6281 128.348 88.231 126.551 86.1548C125.585 85.0546 124.708 83.8788 123.93 82.6387C123.425 81.8643 123.167 80.9547 123.192 80.0305C123.216 79.1064 123.52 78.2114 124.065 77.4645C126.999 73.1828 130.893 70.5529 136.277 70.7914C137.568 70.8751 138.829 71.2178 139.985 71.799C141.141 72.3802 142.168 73.1881 143.006 74.1745C144.556 75.8601 145.896 77.7383 147.38 79.4875C147.854 80.1071 148.471 80.6021 149.179 80.9301C149.886 81.2581 150.663 81.4092 151.442 81.3703C151.806 81.3704 152.164 81.2832 152.486 81.1161C152.809 80.9491 153.087 80.7069 153.297 80.4102C153.507 80.1134 153.642 79.7706 153.692 79.4106C153.742 79.0505 153.704 78.6838 153.583 78.3413C153.366 77.6378 153.009 76.9857 152.533 76.4243C152.057 75.8629 151.472 75.4039 150.813 75.0752C150.532 74.9135 150.25 74.7548 149.728 74.4586ZM96.3191 128.782C96.6706 128.363 96.8665 128.145 97.0462 127.914C99.0218 125.383 100.654 122.602 101.9 119.643C102.957 117.261 103.54 114.696 103.618 112.092C103.649 109.891 102.769 108.263 101.222 107.634C100.372 107.323 99.4487 107.273 98.5697 107.488C97.6907 107.703 96.8955 108.175 96.2852 108.843C95.3909 109.911 94.8177 111.21 94.6319 112.59C93.9006 117.219 94.1907 121.952 95.4818 126.457C95.6719 127.185 95.9902 127.88 96.3191 128.782Z" fill="#D1CAA7"/>
<path d="M157.871 66.316C158.43 65.7512 159.03 65.2271 159.664 64.7477C161.155 63.7637 162.954 63.3594 164.723 63.6112C166.491 63.8631 168.106 64.7535 169.263 66.1146C170.22 67.4794 170.788 69.0782 170.908 70.7407C171.711 76.8532 167.437 81.8251 162.319 84.165C161.571 84.5069 160.781 84.7591 160.003 85.0293C159.564 85.1813 159.323 85.3614 159.398 85.9164C159.742 88.9731 159.707 92.0604 159.295 95.1086C158.358 103.122 156.283 110.962 153.132 118.39C150.782 124.278 147.589 129.793 143.652 134.762C140.155 139.33 135.609 142.989 130.399 145.428C125.646 147.55 120.377 148.242 115.236 147.418C111.427 146.734 107.883 145.008 104.996 142.431C103.791 141.424 102.676 140.309 101.563 139.283C100.123 140.414 98.7396 141.66 97.2046 142.677C91.8107 146.249 85.9361 148.334 79.3772 147.764C75.3941 147.366 71.5659 146.013 68.218 143.818C61.8376 139.787 58.3664 133.772 56.6727 126.573C55.4333 120.604 55.1257 114.48 55.7609 108.417C56.3226 101.392 57.434 94.4227 59.0848 87.572C60.9715 79.5989 63.0849 71.6787 65.1559 63.7502C66.53 58.4897 68.0032 53.2551 69.4275 48.0077C69.4776 47.7609 69.5145 47.5117 69.538 47.261C68.3746 47.1669 67.2586 47.0395 66.1392 46.9928C62.1021 46.7921 58.0553 46.936 54.0426 47.4229C47.7479 48.2354 41.675 49.7385 36.1693 53.0632C32.4619 55.4606 29.3355 58.654 27.0173 62.4113C23.7779 67.254 22.8287 72.6712 23.0764 78.3824C23.4957 88.0521 30.1473 94.7164 38.6425 96.9311C39.4352 97.1379 40.2613 97.2171 41.1993 97.3772C41.0529 97.5668 40.8939 97.7463 40.7233 97.9145C36.2557 101.63 31.7849 105.341 27.3109 109.049C26.1387 110.019 24.9116 110.923 23.7514 111.906C23.4738 112.155 23.1336 112.325 22.7672 112.396C22.4008 112.467 22.022 112.437 21.6713 112.309C15.2683 110.437 11.2989 106.167 9.33402 99.8772C7.65101 94.4881 7.96388 89.073 8.96691 83.6257C10.4723 75.301 13.671 67.3741 18.3648 60.336C22.1504 54.7671 26.6478 49.7171 31.7427 45.3142C38.0179 39.8274 44.9835 35.1845 52.4624 31.5035C58.6041 28.3722 65.1733 26.1618 71.9586 24.9434C77.4558 23.9939 83.0024 23.3277 88.5304 22.5594C94.5267 21.7263 100.531 20.9472 106.524 20.0959C112.881 19.2305 119.178 17.979 125.382 16.3484C131.567 14.8423 137.472 12.3566 142.872 8.98532C146.171 6.83625 149.098 4.16532 151.539 1.077C151.777 0.775782 152.043 0.496491 152.477 0C152.477 1.17718 152.469 2.12169 152.479 3.06574C152.622 8.62901 152.113 14.1899 150.961 19.6346C149.227 27.2813 145.89 34.0446 139.944 39.328C136.019 42.7222 131.396 45.2141 126.403 46.6279C122.727 47.7626 118.93 48.4585 115.09 48.701C111.56 48.9075 108.013 48.8709 104.474 48.8675C102.734 48.8657 100.996 48.664 99.2556 48.6336C99.0678 48.6588 98.8884 48.7271 98.7314 48.8331C98.5743 48.939 98.4439 49.0798 98.3502 49.2445C95.8168 54.6821 93.3078 60.1308 90.823 65.5906C87.2569 73.4161 83.9739 81.3556 81.1822 89.4956C79.2464 94.9949 77.731 100.633 76.6491 106.362C75.4733 111.782 75.257 117.367 76.01 122.862C76.5673 127.188 78.6989 131.157 81.9975 134.011C82.9767 134.897 84.1257 135.576 85.3748 136.005C86.6239 136.434 87.9472 136.605 89.2645 136.508C90.5817 136.411 91.8655 136.047 93.0381 135.439C94.2107 134.831 95.2476 133.991 96.086 132.971C96.2719 132.794 96.3815 132.552 96.3916 132.295C96.4017 132.039 96.3116 131.788 96.1403 131.597C93.8184 127.635 92.0899 123.354 91.0097 118.891C89.3948 112.149 89.0399 105.384 91.0875 98.6559C92.3794 93.8267 95.2647 89.5756 99.2755 86.5917C102.529 84.1072 106.595 82.9327 110.672 83.3001C117.292 83.9983 122.064 87.211 124.111 94.2377C125.566 99.6119 125.261 105.311 123.238 110.499C120.684 117.824 116.342 124.059 111.301 129.858C110.902 130.317 110.515 130.793 110.075 131.209C109.707 131.557 109.727 131.795 110.054 132.17C111.355 133.544 113.078 134.445 114.949 134.729C118.776 135.562 122.175 134.354 125.405 132.514C130.083 129.851 133.234 125.759 135.73 121.103C137.673 117.5 139.085 113.635 139.923 109.628C141.772 101.492 141.379 93.0077 138.787 85.0775C137.88 82.4855 136.491 80.0884 134.694 78.0123C133.728 76.912 132.851 75.7362 132.073 74.4961C131.568 73.7217 131.311 72.8121 131.335 71.888C131.359 70.9638 131.664 70.0689 132.208 69.3219C135.142 65.0403 139.036 62.4103 144.42 62.6488C145.712 62.7325 146.973 63.0752 148.129 63.6564C149.284 64.2376 150.312 65.0455 151.149 66.032C152.7 67.7175 154.039 69.5957 155.523 71.3449C155.997 71.9645 156.614 72.4596 157.322 72.7876C158.029 73.1155 158.806 73.2666 159.585 73.2277C159.949 73.2278 160.307 73.1406 160.63 72.9736C160.952 72.8065 161.23 72.5644 161.44 72.2676C161.65 71.9708 161.785 71.628 161.835 71.268C161.885 70.908 161.847 70.5413 161.726 70.1987C161.509 69.4953 161.152 68.8431 160.676 68.2817C160.2 67.7203 159.615 67.2614 158.956 66.9326C158.676 66.7709 158.393 66.6122 157.871 66.316ZM104.462 120.639C104.814 120.22 105.01 120.002 105.189 119.771C107.165 117.24 108.797 114.459 110.044 111.5C111.1 109.118 111.683 106.554 111.761 103.949C111.792 101.749 110.912 100.12 109.365 99.4911C108.515 99.1807 107.592 99.1299 106.713 99.3453C105.834 99.5607 105.039 100.033 104.428 100.701C103.534 101.768 102.961 103.067 102.775 104.447C102.044 109.076 102.334 113.809 103.625 118.314C103.815 119.043 104.133 119.737 104.462 120.639Z" fill="white"/>
</svg>
