<svg width="64" height="59" viewBox="0 0 64 59" fill="none" xmlns="http://www.w3.org/2000/svg">
<path d="M59.0696 27.759C59.2797 27.547 59.5047 27.3503 59.7427 27.1703C60.3024 26.8009 60.9778 26.6492 61.6417 26.7437C62.3055 26.8382 62.9118 27.1725 63.3461 27.6834C63.7052 28.1957 63.9186 28.7959 63.9634 29.4199C64.265 31.7144 62.6604 33.5807 60.7394 34.4591C60.4588 34.5874 60.1622 34.6821 59.8699 34.7835C59.7053 34.8406 59.6147 34.9082 59.6431 35.1165C59.772 36.2639 59.759 37.4228 59.6041 38.567C59.2524 41.5752 58.4734 44.5179 57.2907 47.3061C56.4088 49.5163 55.2102 51.5866 53.7323 53.4518C52.4198 55.1665 50.7134 56.5398 48.7577 57.4554C46.9734 58.2522 44.9956 58.5118 43.0661 58.2027C41.6363 57.9459 40.3057 57.2978 39.222 56.3304C38.7698 55.9525 38.3512 55.5341 37.9335 55.1487C37.3928 55.5733 36.8736 56.0412 36.2974 56.4227C34.2727 57.7637 32.0675 58.5462 29.6054 58.3322C28.1103 58.183 26.6732 57.675 25.4166 56.8513C23.0215 55.3382 21.7185 53.0801 21.0827 50.3779C20.6175 48.1374 20.502 45.8383 20.7405 43.5624C20.9512 40.9257 21.3683 38.3095 21.9879 35.738C22.6961 32.7451 23.4894 29.772 24.2668 26.7959C24.7826 24.8212 25.3356 22.8563 25.8703 20.8865C25.8891 20.7939 25.9029 20.7003 25.9118 20.6062C25.475 20.5709 25.0561 20.5231 24.6359 20.5056C23.1205 20.4302 21.6014 20.4843 20.0952 20.667C17.7323 20.972 15.4527 21.5362 13.386 22.7842C11.9943 23.6842 10.8207 24.8829 9.95054 26.2933C8.73455 28.1111 8.37827 30.1446 8.47124 32.2884C8.62862 35.9182 11.1255 38.4198 14.3143 39.2512C14.6119 39.3288 14.922 39.3585 15.2741 39.4186C13.5465 40.8911 8.37294 45.1079 8.37294 45.1079C7.277 44.7475 6.23745 44.2341 5.28509 43.583C4.08252 42.6481 3.62734 41.3643 3.31278 40.3572C2.68093 38.3341 2.79838 36.3014 3.17489 34.2566C3.73999 31.1318 4.94069 28.1562 6.70262 25.5143C8.12364 23.4239 9.81185 21.5282 11.7244 19.8755C14.0799 17.8159 16.6946 16.073 19.502 14.6913C21.8074 13.5159 24.2733 12.6862 26.8204 12.2288C28.8839 11.8723 30.9659 11.6223 33.041 11.3339C35.2919 11.0212 37.5456 10.7287 39.7955 10.4092C42.1814 10.0843 44.5454 9.61452 46.8743 9.00245C49.196 8.43711 51.4124 7.50401 53.4395 6.23852C54.6777 5.43183 55.7765 4.42923 56.693 3.26994C56.7823 3.15687 56.8822 3.05203 57.045 2.86566C57.045 3.30754 57.042 3.66209 57.0455 4.01646C57.0993 6.10477 56.9081 8.19219 56.4759 10.236C55.8249 13.1064 54.5725 15.6452 52.3405 17.6284C50.8669 18.9025 49.1318 19.8379 47.2575 20.3686C45.8776 20.7945 44.4522 21.0557 43.011 21.1468C41.6858 21.2243 40.3544 21.2106 39.0257 21.2093C38.3728 21.2086 37.7202 21.1329 37.067 21.1215C36.9965 21.131 36.9292 21.1566 36.8702 21.1964C36.8113 21.2361 36.7623 21.289 36.7271 21.3508C35.7762 23.3919 34.8343 25.4372 33.9016 27.4867C32.563 30.4242 31.3306 33.4045 30.2827 36.4601C29.556 38.5244 28.9872 40.6409 28.5811 42.7914C28.1397 44.826 28.0585 46.9223 28.3412 48.985C28.5504 50.6088 29.3505 52.0987 30.5887 53.1699C30.9563 53.5026 31.3876 53.7573 31.8565 53.9184C32.3254 54.0796 32.8221 54.1439 33.3166 54.1074C33.811 54.0709 34.2929 53.9344 34.7331 53.7061C35.1732 53.4779 35.5625 53.1627 35.8772 52.7795C35.947 52.7131 35.9881 52.6222 35.9919 52.5259C35.9957 52.4297 35.9619 52.3357 35.8976 52.264C35.026 50.7767 34.3771 49.1698 33.9717 47.4943C33.3655 44.9635 33.2323 42.4241 34.0009 39.8986C34.4858 38.0858 35.5689 36.4901 37.0744 35.37C38.2956 34.4374 39.822 33.9965 41.3524 34.1345C43.8375 34.3965 45.6288 35.6025 46.3969 38.2401C46.9434 40.2574 46.8286 42.3968 46.0695 44.3441C45.1105 47.094 43.4807 49.4345 41.5886 51.611C41.4388 51.7834 41.2936 51.9619 41.1282 52.1183C40.9902 52.2489 40.9977 52.3381 41.1203 52.4788C41.6088 52.9948 42.2555 53.333 42.958 53.4396C44.3945 53.7521 45.6702 53.2986 46.8826 52.6082C48.6387 51.6083 49.8217 50.0723 50.7586 48.3249C51.4879 46.9722 52.018 45.5214 52.3326 44.0172C53.0265 40.9633 52.8792 37.7784 51.9062 34.8016C51.5657 33.8287 51.0444 32.9288 50.3697 32.1495C50.007 31.7365 49.678 31.2951 49.3858 30.8296C49.1963 30.5389 49.0996 30.1975 49.1087 29.8506C49.1177 29.5037 49.2321 29.1677 49.4366 28.8874C50.5377 27.2801 51.9994 26.2929 54.0207 26.3825C54.5054 26.4139 54.9787 26.5425 55.4126 26.7607C55.8465 26.9788 56.2321 27.2821 56.5464 27.6524C57.1285 28.2851 57.6313 28.9901 58.1883 29.6468C58.3661 29.8793 58.5979 30.0652 58.8635 30.1883C59.1292 30.3114 59.4208 30.3681 59.7132 30.3535C59.8496 30.3535 59.9841 30.3208 60.1052 30.2581C60.2264 30.1954 60.3307 30.1045 60.4094 29.9931C60.4882 29.8817 60.539 29.753 60.5577 29.6179C60.5764 29.4827 60.5623 29.3451 60.5168 29.2165C60.4354 28.9524 60.3013 28.7076 60.1226 28.4969C59.9439 28.2862 59.7243 28.1139 59.477 27.9905C59.3717 27.9298 59.2656 27.8702 59.0696 27.759ZM39.0214 48.1506C39.1534 47.9934 39.2269 47.9114 39.2943 47.8247C40.0359 46.8747 40.6486 45.8307 41.1165 44.72C41.513 43.8259 41.732 42.8633 41.7613 41.8856C41.7727 41.0595 41.4424 40.4482 40.8618 40.2121C40.5427 40.0956 40.1962 40.0765 39.8662 40.1574C39.5363 40.2382 39.2378 40.4154 39.0087 40.6662C38.673 41.0669 38.4578 41.5545 38.3881 42.0726C38.1136 43.8101 38.2224 45.5868 38.7071 47.2778C38.7785 47.5513 38.8979 47.8119 39.0214 48.1506Z" fill="#1E1E1E"/>
<path d="M56.204 24.8933C56.4141 24.6814 56.639 24.4846 56.8771 24.3046C57.4367 23.9353 58.1122 23.7835 58.776 23.8781C59.4399 23.9726 60.0461 24.3068 60.4804 24.8177C60.8395 25.33 61.0529 25.9302 61.0977 26.5543C61.3994 28.8488 59.7948 30.7151 57.8738 31.5934C57.5931 31.7218 57.2965 31.8164 57.0042 31.9178C56.8396 31.9749 56.749 32.0425 56.7774 32.2509C56.9064 33.3982 56.8933 34.5572 56.7384 35.7013C56.3868 38.7096 55.6078 41.6522 54.4251 44.4404C53.5432 46.6507 52.3445 48.7209 50.8667 50.5861C49.5541 52.3009 47.8478 53.6742 45.8921 54.5898C44.1077 55.3865 42.13 55.6462 40.2004 55.337C38.7706 55.0802 37.44 54.4321 36.3563 53.4647C35.9041 53.0868 35.4856 52.6684 35.0679 52.2831C34.5271 52.7076 34.0079 53.1755 33.4317 53.557C31.407 54.8981 29.2018 55.6805 26.7398 55.4666C25.2446 55.3174 23.8076 54.8093 22.5509 53.9857C20.1558 52.4725 18.8529 50.2144 18.2171 47.5123C17.7518 45.2717 17.6364 42.9726 17.8748 40.6967C18.0856 38.06 18.5027 35.4439 19.1222 32.8723C19.8305 29.8794 20.6238 26.9064 21.4012 23.9302C21.917 21.9556 22.47 19.9906 23.0046 18.0209C23.0234 17.9282 23.0373 17.8347 23.0461 17.7406C22.6094 17.7053 22.1905 17.6574 21.7703 17.6399C20.2548 17.5646 18.7358 17.6186 17.2295 17.8014C14.8666 18.1063 12.587 18.6706 10.5203 19.9186C9.12867 20.8185 7.95508 22.0172 7.08488 23.4276C5.86888 25.2455 5.51261 27.2789 5.60557 29.4228C5.76296 33.0525 8.25981 35.5541 11.4487 36.3855C11.7463 36.4631 12.0564 36.4928 12.4084 36.5529C10.6809 38.0254 5.50728 42.2422 5.50728 42.2422C4.41133 41.8818 3.37178 41.3685 2.41943 40.7173C1.21686 39.7824 0.761679 38.4986 0.44712 37.4915C-0.184728 35.4685 -0.0672831 33.4357 0.309226 31.391C0.874327 28.2661 2.07503 25.2905 3.83696 22.6486C5.25797 20.5582 6.94619 18.6625 8.85869 17.0098C11.2142 14.9502 13.829 13.2074 16.6363 11.8256C18.9418 10.6502 21.4077 9.82049 23.9547 9.36314C26.0182 9.00668 28.1003 8.75663 30.1754 8.46824C32.4262 8.1555 34.6799 7.86303 36.9298 7.54349C39.3158 7.21863 41.6797 6.74886 44.0086 6.13679C46.3304 5.57145 48.5468 4.63835 50.5738 3.37286C51.812 2.56617 52.9108 1.56357 53.8273 0.404279C53.9167 0.291209 54.0165 0.18637 54.1794 0C54.1794 0.441882 54.1764 0.796428 54.1798 1.1508C54.2336 3.23911 54.0424 5.32653 53.6103 7.37033C52.9593 10.2407 51.7069 12.7795 49.4749 14.7627C48.0013 16.0368 46.2662 16.9722 44.3918 17.503C43.012 17.9289 41.5866 18.1901 40.1453 18.2811C38.8201 18.3586 37.4887 18.3449 36.1601 18.3436C35.5072 18.343 34.8546 18.2672 34.2013 18.2559C34.1308 18.2653 34.0635 18.2909 34.0045 18.3307C33.9456 18.3705 33.8966 18.4233 33.8615 18.4851C32.9105 20.5263 31.9687 22.5716 31.0359 24.6211C29.6973 27.5585 28.465 30.5388 27.417 33.5944C26.6903 35.6587 26.1215 37.7752 25.7154 39.9257C25.2741 41.9603 25.1929 44.0566 25.4755 46.1193C25.6847 47.7432 26.4849 49.233 27.7231 50.3042C28.0906 50.637 28.5219 50.8916 28.9908 51.0528C29.4597 51.2139 29.9564 51.2782 30.4509 51.2417C30.9454 51.2052 31.4273 51.0687 31.8674 50.8405C32.3076 50.6122 32.6968 50.297 33.0115 49.9139C33.0813 49.8475 33.1225 49.7565 33.1263 49.6602C33.1301 49.564 33.0962 49.4701 33.0319 49.3984C32.1603 47.9111 31.5115 46.3041 31.106 44.6286C30.4998 42.0978 30.3666 39.5585 31.1352 37.0329C31.6202 35.2202 32.7032 33.6244 34.2088 32.5043C35.4299 31.5717 36.9564 31.1309 38.4867 31.2688C40.9719 31.5308 42.7631 32.7368 43.5312 35.3744C44.0777 37.3918 43.963 39.5312 43.2039 41.4785C42.2448 44.2283 40.615 46.5688 38.723 48.7453C38.5731 48.9177 38.428 49.0962 38.2625 49.2526C38.1245 49.3832 38.1321 49.4725 38.2546 49.6132C38.7431 50.1292 39.3899 50.4673 40.0924 50.574C41.5288 50.8864 42.8046 50.433 44.017 49.7426C45.7731 48.7427 46.956 47.2067 47.8929 45.4592C48.6222 44.1066 49.1523 42.6557 49.4669 41.1516C50.1609 38.0977 50.0135 34.9127 49.0406 31.936C48.7 30.963 48.1787 30.0632 47.504 29.2838C47.1414 28.8708 46.8124 28.4295 46.5202 27.9639C46.3306 27.6733 46.234 27.3318 46.243 26.9849C46.2521 26.638 46.3664 26.3021 46.5709 26.0217C47.672 24.4145 49.1337 23.4272 51.155 23.5168C51.6397 23.5482 52.1131 23.6768 52.547 23.895C52.9809 24.1132 53.3664 24.4164 53.6807 24.7867C54.2629 25.4194 54.7656 26.1245 55.3226 26.7811C55.5005 27.0137 55.7322 27.1995 55.9979 27.3226C56.2635 27.4457 56.5551 27.5024 56.8475 27.4878C56.984 27.4879 57.1184 27.4551 57.2395 27.3924C57.3607 27.3297 57.465 27.2388 57.5438 27.1274C57.6225 27.016 57.6733 26.8873 57.692 26.7522C57.7107 26.6171 57.6967 26.4794 57.6511 26.3508C57.5697 26.0868 57.4356 25.842 57.2569 25.6312C57.0782 25.4205 56.8586 25.2482 56.6114 25.1248C56.5061 25.0641 56.4 25.0046 56.204 24.8933ZM36.1557 45.2849C36.2877 45.1277 36.3612 45.0458 36.4287 44.959C37.1703 44.009 37.783 42.9651 38.2508 41.8544C38.6473 40.9603 38.8663 39.9976 38.8956 39.0199C38.907 38.1938 38.5768 37.5826 37.9962 37.3464C37.6771 37.2299 37.3305 37.2109 37.0006 37.2917C36.6706 37.3726 36.3721 37.5497 36.143 37.8005C35.8073 38.2012 35.5921 38.6889 35.5224 39.2069C35.2479 40.9445 35.3568 42.7211 35.8415 44.4121C35.9128 44.6857 36.0323 44.9462 36.1557 45.2849Z" fill="#EB8038"/>
</svg>
